nColumns=19
nRows=118
DataType=double
version=3
OpenSimVersion=4.1
endheader
time	ground_force_calcn_r_vx	ground_force_calcn_r_vy	ground_force_calcn_r_vz	ground_force_calcn_r_px	ground_force_calcn_r_py	ground_force_calcn_r_pz	ground_force_calcn_r_mx	ground_force_calcn_r_my	ground_force_calcn_r_mz	ground_force_calcn_l_vx	ground_force_calcn_l_vy	ground_force_calcn_l_vz	ground_force_calcn_l_px	ground_force_calcn_l_py	ground_force_calcn_l_pz	ground_force_calcn_l_mx	ground_force_calcn_l_my	ground_force_calcn_l_mz
0.87	-6.89073	27.1257	-6.17876	1.09179	0	-0.296267	-0.363524	1.43103	-0.325964	0	0	0	0	0	0	0	0	0
0.88	-18.696	102.371	-15.6442	1.11345	0	-0.307279	-0.863036	4.72561	-0.72216	0	0	0	0	0	0	0	0	0
0.89	-34.967	301.996	-28.2206	1.1216	0	-0.307997	-0.941381	8.13035	-0.759755	0	0	0	0	0	0	0	0	0
0.9	-54.7986	655.836	-35.6897	1.11848	0	-0.310551	-0.866479	10.3701	-0.564328	0	0	0	0	0	0	0	0	0
0.91	-91.3975	1044.26	-26.5914	1.10941	0	-0.314853	-0.930638	10.633	-0.270762	0	0	0	0	0	0	0	0	0
0.92	-153.852	1304.85	-1.19564	1.09924	0	-0.319808	-1.04935	8.89979	-0.00815486	0	0	0	0	0	0	0	0	0
0.93	-224.471	1461.07	24.4146	1.08663	0	-0.324521	-0.914966	5.95549	0.0995166	0	0	0	0	0	0	0	0	0
0.94	-252.825	1618.33	38.8877	1.06547	0	-0.327892	-0.457927	2.93118	0.070435	0	0	0	0	0	0	0	0	0
0.95	-226.095	1791.77	46.2481	1.03644	0	-0.329134	-0.0792062	0.627698	0.0162018	0	0	0	0	0	0	0	0	0
0.96	-175.276	1923.12	51.1318	1.00712	0	-0.329131	0.0512614	-0.562437	-0.0149541	0	0	0	0	0	0	0	0	0
0.97	-124.166	1975.92	51.9632	0.981125	0	-0.329148	0.0423502	-0.673942	-0.0177235	0	0	0	0	0	0	0	0	0
0.98	-76.1891	1956.19	49.4147	0.956976	0	-0.329186	0.00464727	-0.119321	-0.00301412	0	0	0	0	0	0	0	0	0
0.99	-29.7132	1882.95	46.9603	0.932501	0	-0.328858	-0.00862476	0.546559	0.013631	0	0	0	0	0	0	0	0	0
1	13.3047	1765.24	45.5858	0.908009	0	-0.32859	0.00664608	0.881793	0.0227715	0	0	0	0	0	0	0	0	0
1.01	52.311	1605.26	44.937	0.883408	0	-0.328874	0.023357	0.716753	0.0200645	0	0	0	0	0	0	0	0	0
1.02	88.0547	1403.73	45.3328	0.8569	0	-0.329759	0.0109979	0.175324	0.00566201	0	0	0	0	0	0	0	0	0
1.03	125.593	1164.47	46.1951	0.825616	0	-0.331144	-0.0455054	-0.421916	-0.0167376	0	0	0	0	0	0	0	0	0
1.04	162.848	907.243	45.0348	0.788941	0	-0.332637	-0.130194	-0.725325	-0.0360046	0	0	0	0	0	0	0	0	0
1.05	176.092	666.679	40.0963	0.75469	0	-0.333494	-0.144962	-0.548823	-0.033008	0	0	0	0	0	0	0	0	0
1.06	154.087	464.247	33.051	0.731504	0	-0.333257	0.0113498	0.0341956	0.00243448	0	0	0	0	0	0	0	0	0
1.07	118.228	304.145	26.5078	0.715514	0	-0.330699	0.309851	0.797098	0.069471	0	0	0	0	0	0	0	0	0
1.08	86.5885	183.066	20.5041	0.693374	0	-0.324065	0.678815	1.43515	0.160743	0	0	0	0	0	0	0	0	0
1.09	55.636	95.7346	14.0238	0.662486	0	-0.314431	0.98996	1.70346	0.249533	0	0	0	0	0	0	0	0	0
1.1	25.4322	39.3027	7.82332	0.645771	0	-0.308596	1.05107	1.62432	0.323326	0	0	0	0	0	0	0	0	0
1.11	7.25204	12.1142	3.65267	0.759174	0	-0.305086	0.789228	1.31837	0.397514	0	0	0	0	0	0	0	0	0
1.12	0	0	0	0	0	0	0	0	0	0	0	0	0	0	0	0	0	0
1.13	0	0	0	0	0	0	0	0	0	0	0	0	0	0	0	0	0	0
1.14	0	0	0	0	0	0	0	0	0	0	0	0	0	0	0	0	0	0
1.15	0	0	0	0	0	0	0	0	0	0	0	0	0	0	0	0	0	0
1.16	0	0	0	0	0	0	0	0	0	0	0	0	0	0	0	0	0	0
1.17	0	0	0	0	0	0	0	0	0	0	0	0	0	0	0	0	0	0
1.18	0	0	0	0	0	0	0	0	0	0	0	0	0	0	0	0	0	0
1.19	0	0	0	0	0	0	0	0	0	0	0	0	0	0	0	0	0	0
1.2	0	0	0	0	0	0	0	0	0	0	0	0	0	0	0	0	0	0
1.21	0	0	0	0	0	0	0	0	0	-3.09803	13.7508	2.20832	1.06081	0	-0.340343	0.11669	-0.517938	-0.0831786
1.22	0	0	0	0	0	0	0	0	0	-10.0205	63.2155	6.33056	1.08936	0	-0.350199	0.551452	-3.47891	-0.348387
1.23	0	0	0	0	0	0	0	0	0	-22.5738	216.492	16.1696	1.09811	0	-0.354975	0.712353	-6.83176	-0.510257
1.24	0	0	0	0	0	0	0	0	0	-38.796	534.931	31.8095	1.09972	0	-0.351694	0.678554	-9.35612	-0.556357
1.25	0	0	0	0	0	0	0	0	0	-71.7173	947.509	43.693	1.0979	0	-0.344801	0.75204	-9.93574	-0.458172
1.26	0	0	0	0	0	0	0	0	0	-127.921	1250.46	34.0165	1.0943	0	-0.340057	0.836993	-8.18179	-0.22257
1.27	0	0	0	0	0	0	0	0	0	-186.598	1384.14	-0.443178	1.08522	0	-0.341658	0.640804	-4.75333	0.00152194
1.28	0	0	0	0	0	0	0	0	0	-227.119	1491.99	-32.5258	1.06708	0	-0.345741	0.15928	-1.04635	0.0228106
1.29	0	0	0	0	0	0	0	0	0	-230.932	1664.43	-36.1588	1.04041	0	-0.345474	-0.238587	1.71961	-0.0373574
1.3	0	0	0	0	0	0	0	0	0	-190.084	1842.8	-21.4018	1.00957	0	-0.343899	-0.319997	3.10227	-0.0360288
1.31	0	0	0	0	0	0	0	0	0	-133.131	1940.18	-13.0963	0.981093	0	-0.345161	-0.232641	3.39038	-0.0228852
1.32	0	0	0	0	0	0	0	0	0	-86.1019	1942.04	-15.5755	0.955747	0	-0.347575	-0.144889	3.268	-0.0262099
1.33	0	0	0	0	0	0	0	0	0	-39.0481	1887.96	-19.3529	0.929381	0	-0.348444	-0.0697839	3.37402	-0.0345861
1.34	0	0	0	0	0	0	0	0	0	14.8505	1796.65	-21.2266	0.901388	0	-0.348112	0.0335206	4.05542	-0.0479129
1.35	0	0	0	0	0	0	0	0	0	67.3659	1658.44	-24.2929	0.872755	0	-0.347537	0.215704	5.31027	-0.0777852
1.36	0	0	0	0	0	0	0	0	0	122.805	1473.04	-30.2514	0.840737	0	-0.346851	0.5681	6.81435	-0.139944
1.37	0	0	0	0	0	0	0	0	0	177.425	1258.03	-36.4406	0.804752	0	-0.345976	1.13362	8.03789	-0.232829
1.38	0	0	0	0	0	0	0	0	0	205.675	1032.92	-38.4958	0.77106	0	-0.344681	1.69808	8.52796	-0.317828
1.39	0	0	0	0	0	0	0	0	0	202.911	810.07	-35.8354	0.743128	0	-0.342912	2.03312	8.11673	-0.359063
1.4	0	0	0	0	0	0	0	0	0	183.611	599.037	-31.7353	0.71715	0	-0.341667	2.10978	6.88325	-0.364655
1.41	0	0	0	0	0	0	0	0	0	156.248	413.465	-27.9048	0.690498	0	-0.341496	1.93836	5.12931	-0.346179
1.42	0	0	0	0	0	0	0	0	0	121.276	263.757	-23.4525	0.668305	0	-0.340803	1.52306	3.31244	-0.294531
1.43	0	0	0	0	0	0	0	0	0	83.2856	152.38	-18.321	0.653664	0	-0.337626	0.990943	1.81303	-0.217986
1.44	0	0	0	0	0	0	0	0	0	47.102	76.5485	-13.3132	0.639625	0	-0.335144	0.509374	0.827817	-0.143973
1.45	0	0	0	0	0	0	0	0	0	18.5301	31.2324	-8.48629	0.620791	0	-0.337409	0.199279	0.335884	-0.0912646
1.46	0	0	0	0	0	0	0	0	0	0	0	0	0	0	0	0	0	0
1.47	0	0	0	0	0	0	0	0	0	0	0	0	0	0	0	0	0	0
1.48	0	0	0	0	0	0	0	0	0	0	0	0	0	0	0	0	0	0
1.49	0	0	0	0	0	0	0	0	0	0	0	0	0	0	0	0	0	0
1.5	0	0	0	0	0	0	0	0	0	0	0	0	0	0	0	0	0	0
1.51	0	0	0	0	0	0	0	0	0	0	0	0	0	0	0	0	0	0
1.52	0	0	0	0	0	0	0	0	0	0	0	0	0	0	0	0	0	0
1.53	0	0	0	0	0	0	0	0	0	0	0	0	0	0	0	0	0	0
1.54	0	0	0	0	0	0	0	0	0	0	0	0	0	0	0	0	0	0
1.55	-4.612	16.7666	-4.09374	1.13129	0	-0.274636	-0.138596	0.503855	-0.123022	0	0	0	0	0	0	0	0	0
1.56	-18.3061	66.1872	-11.9602	1.10308	0	-0.306091	-0.665938	2.40776	-0.435087	0	0	0	0	0	0	0	0	0
1.57	-37.4432	206.721	-23.4715	1.08496	0	-0.307262	-0.807299	4.45703	-0.506061	0	0	0	0	0	0	0	0	0
1.58	-43.1043	481.924	-33.5841	1.07361	0	-0.308887	-0.51494	5.75725	-0.401208	0	0	0	0	0	0	0	0	0
1.59	-42.4259	827.569	-32.7347	1.06319	0	-0.311769	-0.291634	5.68867	-0.225017	0	0	0	0	0	0	0	0	0
1.6	-71.8243	1074.26	-18.1895	1.05549	0	-0.314011	-0.290458	4.34429	-0.0735584	0	0	0	0	0	0	0	0	0
1.61	-138.89	1183.3	-3.34068	1.04942	0	-0.315723	-0.27336	2.32894	-0.00657501	0	0	0	0	0	0	0	0	0
1.62	-200	1283.52	-1.0509	1.03736	0	-0.317647	-0.064633	0.41479	-0.000339613	0	0	0	0	0	0	0	0	0
1.63	-211.501	1449.19	-4.71533	1.0133	0	-0.318349	0.138113	-0.946346	0.00307919	0	0	0	0	0	0	0	0	0
1.64	-183.538	1636.68	-2.23561	0.983009	0	-0.317439	0.189176	-1.68696	0.00230428	0	0	0	0	0	0	0	0	0
1.65	-139.611	1776.17	5.55344	0.95331	0	-0.316779	0.152338	-1.93809	-0.00605969	0	0	0	0	0	0	0	0	0
1.66	-94.3316	1841.76	12.8805	0.925635	0	-0.31713	0.0995497	-1.94364	-0.0135931	0	0	0	0	0	0	0	0	0
1.67	-45.8225	1846.32	19.8109	0.897827	0	-0.317428	0.0487336	-1.96362	-0.0210696	0	0	0	0	0	0	0	0	0
1.68	9.61641	1804.43	27.724	0.86876	0	-0.317426	-0.011578	-2.1725	-0.0333792	0	0	0	0	0	0	0	0	0
1.69	69.887	1713.98	35.901	0.838613	0	-0.317814	-0.105485	-2.58703	-0.0541879	0	0	0	0	0	0	0	0	0
1.7	131.972	1572.95	43.3369	0.806258	0	-0.318713	-0.256442	-3.05648	-0.0842104	0	0	0	0	0	0	0	0	0
1.71	188.713	1391.98	48.5765	0.771917	0	-0.319841	-0.451227	-3.32833	-0.11615	0	0	0	0	0	0	0	0	0
1.72	223.72	1181.81	50.3219	0.7387	0	-0.321072	-0.601551	-3.17771	-0.135308	0	0	0	0	0	0	0	0	0
1.73	231.066	951.145	48.453	0.708092	0	-0.322235	-0.61155	-2.51735	-0.128238	0	0	0	0	0	0	0	0	0
1.74	217.497	718.246	43.5159	0.678799	0	-0.322801	-0.435681	-1.43876	-0.0871691	0	0	0	0	0	0	0	0	0
1.75	188.805	506.394	36.7041	0.651125	0	-0.322087	-0.0758687	-0.203488	-0.0147491	0	0	0	0	0	0	0	0	0
1.76	150.972	331.954	29.6627	0.627417	0	-0.31943	0.388697	0.854659	0.0763704	0	0	0	0	0	0	0	0	0
1.77	110.498	199.575	23.058	0.609225	0	-0.314152	0.811177	1.46511	0.169271	0	0	0	0	0	0	0	0	0
1.78	70.6293	107.171	16.561	0.597625	0	-0.30472	1.02303	1.55231	0.239877	0	0	0	0	0	0	0	0	0
1.79	34.5134	48.6801	10.426	0.600748	0	-0.289461	0.919551	1.297	0.277783	0	0	0	0	0	0	0	0	0
1.8	10.367	17.3372	5.76023	0.645398	0	-0.267501	0.541166	0.905016	0.300689	0	0	0	0	0	0	0	0	0
1.81	0	0	0	0	0	0	0	0	0	0	0	0	0	0	0	0	0	0
1.82	0	0	0	0	0	0	0	0	0	0	0	0	0	0	0	0	0	0
1.83	0	0	0	0	0	0	0	0	0	0	0	0	0	0	0	0	0	0
1.84	0	0	0	0	0	0	0	0	0	0	0	0	0	0	0	0	0	0
1.85	0	0	0	0	0	0	0	0	0	0	0	0	0	0	0	0	0	0
1.86	0	0	0	0	0	0	0	0	0	0	0	0	0	0	0	0	0	0
1.87	0	0	0	0	0	0	0	0	0	0	0	0	0	0	0	0	0	0
1.88	0	0	0	0	0	0	0	0	0	0	0	0	0	0	0	0	0	0
1.89	0	0	0	0	0	0	0	0	0	-11.5583	36.3874	3.42243	1.07633	0	-0.345163	0.318746	-1.00346	-0.094381
1.9	0	0	0	0	0	0	0	0	0	-27.3354	130.672	8.09509	1.09671	0	-0.354375	0.7238	-3.46	-0.214345
1.91	0	0	0	0	0	0	0	0	0	-40.5124	349.651	17.6083	1.09439	0	-0.355397	0.697874	-6.02315	-0.303324
1.92	0	0	0	0	0	0	0	0	0	-48.0612	686.429	28.6152	1.08618	0	-0.350717	0.539636	-7.7073	-0.321295
1.93	0	0	0	0	0	0	0	0	0	-78.4981	995.44	29.5338	1.07839	0	-0.345726	0.624488	-7.91918	-0.234955
1.94	0	0	0	0	0	0	0	0	0	-140.417	1155.01	11.6045	1.07239	0	-0.345631	0.819068	-6.73728	-0.0676903
1.95	0	0	0	0	0	0	0	0	0	-206.758	1246.71	-12.7563	1.06179	0	-0.350448	0.814035	-4.90847	0.0502234
1.96	0	0	0	0	0	0	0	0	0	-236.339	1399.94	-20.5757	1.04047	0	-0.352475	0.569056	-3.37076	0.0495421
1.97	0	0	0	0	0	0	0	0	0	-211.335	1611.14	-11.0972	1.01022	0	-0.350538	0.334999	-2.5539	0.0175908
1.98	0	0	0	0	0	0	0	0	0	-157.064	1780.83	-3.78979	0.979946	0	-0.350175	0.206521	-2.34158	0.00498311
1.99	0	0	0	0	0	0	0	0	0	-112.141	1852.96	-6.84372	0.953665	0	-0.352327	0.141432	-2.33695	0.0086313
2	0	0	0	0	0	0	0	0	0	-74.6051	1852.78	-12.298	0.927555	0	-0.354273	0.0851083	-2.11362	0.0140293
2.01	0	0	0	0	0	0	0	0	0	-27.7641	1814.98	-14.9873	0.899374	0	-0.354961	0.0207139	-1.3541	0.0111815
2.02	0	0	0	0	0	0	0	0	0	23.9559	1737.77	-17.3625	0.871367	0	-0.355102	0.00123298	0.0894411	-0.000893631
2.03	0	0	0	0	0	0	0	0	0	79.1441	1612.59	-22.6137	0.842326	0	-0.354891	0.104692	2.13313	-0.0299134
2.04	0	0	0	0	0	0	0	0	0	142.245	1447.55	-30.8133	0.8089	0	-0.354295	0.435212	4.4289	-0.0942761
